<svg width="19" height="21" viewBox="0 0 19 21" fill="none" xmlns="http://www.w3.org/2000/svg">
    <path d="M17.0129 1.9217C14.3652 -0.640567 10.0537 -0.640567 7.40889 1.9217L0.073103 9.01554C0.025322 9.06178 2.59841e-05 9.12434 2.59841e-05 9.18962C2.59841e-05 9.25491 0.025322 9.31747 0.073103 9.36371L1.11023 10.3674C1.15764 10.4131 1.22181 10.4387 1.28871 10.4387C1.3556 10.4387 1.41978 10.4131 1.46718 10.3674L8.80297 3.27356C9.71362 2.39227 10.925 1.9081 12.2123 1.9081C13.4996 1.9081 14.7109 2.39227 15.6188 3.27356C16.5294 4.15485 17.0297 5.32718 17.0297 6.57023C17.0297 7.81601 16.5294 8.98562 15.6188 9.86691L8.14247 17.0995L6.93108 18.2718C5.79839 19.368 3.95742 19.368 2.82472 18.2718C2.27665 17.7414 1.97591 17.0369 1.97591 16.2862C1.97591 15.5355 2.27665 14.831 2.82472 14.3006L10.242 7.12512C10.4303 6.9456 10.6777 6.84496 10.9419 6.84496H10.9447C11.2089 6.84496 11.4534 6.9456 11.6389 7.12512C11.8272 7.30736 11.9284 7.54673 11.9284 7.80241C11.9284 8.05537 11.8244 8.29473 11.6389 8.47426L5.57635 14.3359C5.52857 14.3822 5.50327 14.4447 5.50327 14.51C5.50327 14.5753 5.52857 14.6378 5.57635 14.6841L6.61348 15.6878C6.66088 15.7335 6.72506 15.7591 6.79195 15.7591C6.85885 15.7591 6.92302 15.7335 6.97043 15.6878L13.0302 9.82339C13.5895 9.28211 13.8959 8.56402 13.8959 7.79969C13.8959 7.03536 13.5867 6.31455 13.0302 5.77599C11.875 4.65805 9.99749 4.66077 8.84232 5.77599L8.12279 6.47503L1.42783 12.9514C0.973439 13.3886 0.613249 13.9087 0.368151 14.4816C0.123054 15.0545 -0.00207333 15.6688 2.59841e-05 16.2889C2.59841e-05 17.5483 0.508753 18.7315 1.42783 19.6209C2.38064 20.5403 3.62857 21 4.8765 21C6.12442 21 7.37235 20.5403 8.32235 19.6209L17.0129 11.216C18.2917 9.97571 19 8.32465 19 6.57023C19.0028 4.81309 18.2945 3.16204 17.0129 1.9217Z" fill="#79B4E2"/>
</svg>
