<svg width="21" height="19" viewBox="0 0 21 19" fill="none" xmlns="http://www.w3.org/2000/svg">
    <path d="M19.2213 9.28003H14.671C14.1165 9.28003 13.6248 9.62353 13.4548 10.1315C13.004 11.4753 11.7155 12.3773 10.25 12.3773C8.784 12.3773 7.496 11.4753 7.0455 10.1315C6.875 9.62353 6.38375 9.28003 5.82875 9.28003H1.27875C0.5725 9.28003 0 9.83003 0 10.5098V17.5233C0 18.2018 0.5725 18.7525 1.27875 18.7525H19.2215C19.9283 18.7525 20.5 18.2018 20.5 17.5233V10.5098C20.4998 9.83003 19.9277 9.28003 19.2213 9.28003Z" fill="#C6C6C6"/>
    <path d="M6.70229 5.44525H8.36554V9.74225C8.36554 9.926 8.51979 10.0738 8.70954 10.0738H11.7888C11.9793 10.0738 12.1328 9.926 12.1328 9.74225V5.44525H13.7973C13.9258 5.44525 14.0438 5.3755 14.1025 5.26625C14.1316 5.21256 14.1447 5.15165 14.1401 5.09077C14.1356 5.02988 14.1137 4.97156 14.077 4.92275L10.5178 0.138253C10.4851 0.0951109 10.4427 0.0601654 10.3942 0.0361732C10.3457 0.012181 10.2922 -0.000201635 10.238 2.48314e-06H10.2373C10.126 2.48314e-06 10.0225 0.0517526 9.95754 0.139503L6.42129 4.923C6.38503 4.97202 6.36343 5.03032 6.359 5.09113C6.35458 5.15194 6.36751 5.21275 6.39629 5.2665C6.45504 5.37675 6.57379 5.44525 6.70229 5.44525Z" fill="#C6C6C6"/>
</svg>
