<svg width="49" height="49" viewBox="0 0 49 49" fill="none" xmlns="http://www.w3.org/2000/svg">
<path d="M24.5 49C38.031 49 49 38.031 49 24.5C49 10.969 38.031 0 24.5 0C10.969 0 0 10.969 0 24.5C0 38.031 10.969 49 24.5 49Z" fill="#32BA7C"/>
<path d="M18.2397 35.5522L30.8375 48.15C41.2713 45.3677 49 35.8613 49 24.5001C49 24.2683 49 24.0364 49 23.8046L39.1072 14.6847L18.2397 35.5522Z" fill="#0AA06E"/>
<path d="M25.1183 29.9876C26.2003 31.0696 26.2003 32.9245 25.1183 34.0065L22.877 36.2478C21.795 37.3299 19.9401 37.3299 18.858 36.2478L9.04259 26.3551C7.96057 25.2731 7.96057 23.4182 9.04259 22.3362L11.2839 20.0948C12.3659 19.0128 14.2208 19.0128 15.3028 20.0948L25.1183 29.9876Z" fill="white"/>
<path d="M33.6971 12.9072C34.7791 11.8252 36.634 11.8252 37.716 12.9072L39.9574 15.1485C41.0394 16.2306 41.0394 18.0854 39.9574 19.1675L22.9542 36.0933C21.8722 37.1754 20.0173 37.1754 18.9353 36.0933L16.694 33.852C15.6119 32.77 15.6119 30.9151 16.694 29.8331L33.6971 12.9072Z" fill="white"/>
</svg>
