<svg width="16" height="19" viewBox="0 0 16 19" fill="none" xmlns="http://www.w3.org/2000/svg">
<path d="M7.35504 15.3999L15.3524 7.37576C15.3884 7.3397 15.4053 7.29091 15.401 7.24213L14.8618 0.849085C14.847 0.683638 14.718 0.55425 14.5531 0.539402L8.17973 0.000638475C8.13109 -0.00360376 8.08034 0.0133651 8.04651 0.049424L0.0491431 8.07148C0.0176607 8.10338 0 8.14644 0 8.19133C0 8.23621 0.0176607 8.27928 0.0491431 8.31117L7.11609 15.3999C7.18164 15.4678 7.28949 15.4678 7.35504 15.3999ZM9.94964 4.08591C10.3451 3.68926 10.9879 3.68926 11.3854 4.08591C11.7809 4.48256 11.7809 5.12737 11.3854 5.52614C10.99 5.92279 10.3472 5.92279 9.94964 5.52614C9.55421 5.1295 9.55421 4.48468 9.94964 4.08591ZM15.9508 10.0865L15.1135 9.2487C15.0817 9.21712 15.0387 9.19941 14.994 9.19941C14.9492 9.19941 14.9063 9.21712 14.8745 9.2487L7.21971 16.9123L2.19545 11.8852C2.16365 11.8537 2.12072 11.836 2.07597 11.836C2.03123 11.836 1.98829 11.8537 1.9565 11.8852L1.11912 12.7231C1.08764 12.755 1.06998 12.798 1.06998 12.8429C1.06998 12.8878 1.08764 12.9309 1.11912 12.9628L6.2618 18.1128L7.09917 18.9507C7.16473 19.0164 7.27257 19.0164 7.33812 18.9507L15.9508 10.3262C16.0164 10.2605 16.0164 10.1523 15.9508 10.0865Z" fill="#C6C6C6"/>
</svg>
