<svg width="141" height="42" viewBox="0 0 141 42" fill="none" xmlns="http://www.w3.org/2000/svg">
<path d="M58.3271 13.3992C57.8518 12.9639 57.2798 12.6414 56.6111 12.4318C55.9424 12.2221 55.2093 12.1173 54.4198 12.1173H49.0786V28.9511H52.583V22.8077H54.6132C55.4188 22.8077 56.1439 22.6787 56.7884 22.4208C57.4329 22.1628 57.9807 21.8 58.4318 21.3324C58.883 20.8648 59.2294 20.3004 59.4711 19.6393C59.7128 18.9782 59.8336 18.2446 59.8336 17.4384C59.8336 16.5193 59.6966 15.7211 59.4308 15.052C59.173 14.3828 58.8024 13.8346 58.3271 13.3992ZM55.8136 19.0588C55.4188 19.3813 54.9596 19.5426 54.444 19.5426H52.583V15.3583H54.4198C55.0321 15.3583 55.5155 15.5115 55.8699 15.8259C56.2244 16.1403 56.4017 16.6644 56.4017 17.39C56.4097 18.1801 56.2083 18.7364 55.8136 19.0588Z" fill="#004F8C"/>
<path d="M71.9018 13.6976C71.4668 13.1897 70.9109 12.7786 70.2342 12.4641C69.5575 12.1497 68.7599 11.9885 67.8415 11.9885C66.8587 11.9885 66.0208 12.1497 65.336 12.4803C64.6513 12.8108 64.0873 13.23 63.6603 13.7541C63.2253 14.2701 62.9111 14.8425 62.7178 15.4794C62.5244 16.1163 62.4277 16.7532 62.4277 17.382V23.3803C62.4277 24.1381 62.5325 24.8637 62.7339 25.5571C62.9353 26.2504 63.2575 26.8551 63.6926 27.3791C64.1276 27.9031 64.6835 28.3224 65.3683 28.6287C66.053 28.9351 66.8828 29.0883 67.8496 29.0883C68.6391 29.0883 69.3641 28.9593 70.0086 28.7093C70.6612 28.4594 71.2251 28.0966 71.7004 27.621C72.1758 27.1453 72.5463 26.5729 72.8122 25.9037C73.0781 25.2346 73.215 24.4848 73.215 23.6463V17.382C73.215 16.7209 73.1022 16.0679 72.8847 15.4229C72.6591 14.786 72.3369 14.2056 71.9018 13.6976ZM69.6783 23.8962C69.6783 24.4606 69.5011 24.904 69.1386 25.2265C68.776 25.549 68.341 25.7102 67.8496 25.7102C67.1567 25.7102 66.6573 25.5006 66.3592 25.0814C66.0611 24.6622 65.908 24.13 65.908 23.4851V17.245C65.908 17.0515 65.9483 16.8419 66.0208 16.6323C66.0933 16.4146 66.2061 16.213 66.3592 16.0276C66.5122 15.8422 66.7136 15.689 66.9473 15.5681C67.189 15.4471 67.487 15.3907 67.8415 15.3907C68.196 15.3907 68.486 15.4632 68.7196 15.6003C68.9533 15.7374 69.1466 15.9067 69.2916 16.0921C69.4366 16.2856 69.5333 16.4871 69.5978 16.6968C69.6542 16.9064 69.6783 17.0918 69.6783 17.253V23.8962Z" fill="#004F8C"/>
<path d="M80.1916 16.6242C80.2561 16.4065 80.3608 16.205 80.5058 16.0195C80.6509 15.8341 80.8442 15.6809 81.0859 15.56C81.3276 15.4391 81.6257 15.3826 81.9801 15.3826C82.3185 15.3826 82.6085 15.4471 82.8502 15.5761C83.0919 15.7051 83.2933 15.8583 83.4544 16.0357C83.6155 16.213 83.7283 16.4065 83.8008 16.6323C83.8733 16.8499 83.9217 17.0434 83.962 17.1966L87.2731 16.205C87.1603 15.6567 86.9669 15.1246 86.693 14.6167C86.4191 14.1088 86.0646 13.6573 85.6296 13.2703C85.1946 12.8834 84.6709 12.577 84.0586 12.3432C83.4464 12.1094 82.7535 11.9885 81.9801 11.9885C80.9973 11.9885 80.1594 12.1497 79.4746 12.4803C78.7899 12.8108 78.234 13.23 77.807 13.7541C77.38 14.2701 77.0658 14.8425 76.8725 15.4794C76.6791 16.1163 76.5825 16.7532 76.5825 17.382V23.3803C76.5825 24.1381 76.6872 24.8637 76.8886 25.5571C77.09 26.2504 77.4042 26.8551 77.8312 27.3791C78.2582 27.9031 78.814 28.3224 79.4988 28.6287C80.1836 28.9351 81.0134 29.0883 81.9801 29.0883C83.3497 29.0883 84.5098 28.7174 85.4604 27.9757C86.4111 27.234 87.0072 26.2101 87.2489 24.904L83.9136 23.9366C83.8492 24.4848 83.6317 24.9201 83.2611 25.2265C82.8905 25.5409 82.4635 25.7022 81.9801 25.7022C81.2873 25.7022 80.7959 25.4926 80.5139 25.0733C80.2319 24.6541 80.095 24.122 80.095 23.477V17.2369C80.095 17.0515 80.1272 16.8419 80.1916 16.6242Z" fill="#004F8C"/>
<path d="M93.8227 16.6242C93.8871 16.4065 93.9919 16.205 94.1369 16.0195C94.2819 15.8341 94.4752 15.6809 94.7169 15.56C94.9586 15.4391 95.2567 15.3826 95.6112 15.3826C95.9495 15.3826 96.2396 15.4471 96.4812 15.5761C96.7229 15.7051 96.9243 15.8583 97.0855 16.0357C97.2466 16.213 97.3594 16.4065 97.4319 16.6323C97.5044 16.8499 97.5527 17.0434 97.593 17.1966L100.904 16.205C100.791 15.6567 100.598 15.1246 100.324 14.6167C100.05 14.1088 99.6957 13.6573 99.2606 13.2703C98.8256 12.8834 98.3019 12.577 97.6897 12.3432C97.0774 12.1094 96.3846 11.9885 95.6112 11.9885C94.6283 11.9885 93.7905 12.1497 93.1057 12.4803C92.4209 12.8108 91.865 13.23 91.438 13.7541C91.0111 14.2701 90.6969 14.8425 90.5035 15.4794C90.3102 16.1163 90.2135 16.7532 90.2135 17.382V23.3803C90.2135 24.1381 90.3182 24.8637 90.5196 25.5571C90.721 26.2504 91.0352 26.8551 91.4622 27.3791C91.8892 27.9031 92.4451 28.3224 93.1298 28.6287C93.8146 28.9351 94.6444 29.0883 95.6112 29.0883C96.9807 29.0883 98.1408 28.7174 99.0915 27.9757C100.042 27.234 100.638 26.2101 100.88 24.904L97.5447 23.9366C97.4802 24.4848 97.2627 24.9201 96.8921 25.2265C96.5215 25.5409 96.0945 25.7022 95.6112 25.7022C94.9183 25.7022 94.4269 25.4926 94.1449 25.0733C93.863 24.6541 93.726 24.122 93.726 23.477V17.2369C93.726 17.0515 93.7582 16.8419 93.8227 16.6242Z" fill="#004F8C"/>
<path d="M104.239 28.9511H114.028V25.6376H107.744V22.058H113.158V18.8412H107.744V15.3583H114.028V12.1173H104.239V28.9511Z" fill="#004F8C"/>
<path d="M115.961 15.3099H119.562V28.9511H123.043V15.3099H126.644V12.1173H115.961V15.3099Z" fill="#004F8C"/>
<path d="M137.834 12.1173L133.024 21.8887H132.976V12.1173H129.496V28.9511H132.783L137.471 19.7844H137.496V28.9511H141V12.1173H137.834Z" fill="#004F8C"/>
<path d="M22.6621 9.989L3.55279 8.98123C1.31316 12.2786 0 16.2613 0 20.5423C0 21.7033 0.0966746 22.832 0.281968 23.9365L22.8152 10.6823C22.7346 10.4647 22.6863 10.2309 22.6621 9.989Z" fill="#004F8C"/>
<path d="M27.7134 11.2467L40.8934 23.743C41.0545 22.703 41.1432 21.6307 41.1432 20.5423C41.1432 16.1243 39.7494 12.0368 37.3809 8.68292L28.1888 9.7955C28.1646 10.3357 27.9954 10.8275 27.7134 11.2467Z" fill="#004F8C"/>
<path d="M23.3711 11.5692L0.853943 26.4116C2.39268 31.6036 5.92936 35.9411 10.5697 38.529L23.79 11.9401C23.6369 11.8353 23.5 11.7063 23.3711 11.5692Z" fill="#004F8C"/>
<path d="M24.7165 12.3754L12.7449 39.5851C15.1618 40.5767 17.7962 41.133 20.5756 41.133C23.2905 41.133 25.8766 40.6009 28.2451 39.6496L25.2724 12.464C25.079 12.4479 24.8937 12.4157 24.7165 12.3754Z" fill="#004F8C"/>
<path d="M26.2874 12.3108L30.5008 38.5612C35.1895 35.9652 38.7504 31.5955 40.2891 26.3631L26.948 11.9964C26.7466 12.1335 26.5291 12.2383 26.2874 12.3108Z" fill="#004F8C"/>
<path d="M23.6692 7.53004L19.3591 0C13.7601 0.322486 8.7652 2.88625 5.25269 6.81251L22.7508 8.90867C22.9119 8.36044 23.2342 7.88478 23.6692 7.53004Z" fill="#004F8C"/>
<path d="M25.4738 6.90121C26.6097 6.9254 27.5684 7.62681 27.9793 8.61845L35.8341 6.75609C32.3458 2.89433 27.4073 0.362816 21.8807 0.0161438L24.781 6.9899C24.9985 6.93346 25.2321 6.89315 25.4738 6.90121Z" fill="#004F8C"/>
</svg>
