<svg width="26" height="19" viewBox="0 0 26 19" fill="none" xmlns="http://www.w3.org/2000/svg">
    <path d="M12.0815 10.7546C12.2978 10.9778 12.6596 11.1194 13.0462 11.1189C13.4322 11.122 13.7951 10.9753 14.0006 10.7636L23.5371 1.16268C24.1751 0.520613 23.9584 0 23.0528 0H3.10746C2.20238 0 1.98414 0.522133 2.61962 1.16614L12.0815 10.7546Z" fill="#C4C4C4"/>
    <path d="M1.14604 15.89L7.63707 9.2533L1.15153 2.6806C0.515546 2.0365 0 2.24816 0 3.15332V15.4233C0 16.3279 0.513012 16.5371 1.14604 15.89Z" fill="#C4C4C4"/>
    <path d="M3.09986 18.5807H22.8995C23.8047 18.5807 24.0259 18.0556 23.3935 17.4085L16.9357 10.796L15.4954 12.2484C14.8201 12.9243 13.922 13.2257 13.0451 13.2272C12.1712 13.2262 11.2667 12.9233 10.5828 12.2379L9.11875 10.7538L2.60754 17.4096C1.97451 18.056 2.19478 18.5807 3.09986 18.5807Z" fill="#C4C4C4"/>
    <path d="M26 15.4213V3.31406C26 2.40898 25.4829 2.19581 24.8449 2.83779L18.4244 9.3006L24.8555 15.8874C25.4874 16.535 26 16.3264 26 15.4213Z" fill="#C4C4C4"/>
</svg>
