<svg width="324" height="93" viewBox="0 0 324 93" fill="none" xmlns="http://www.w3.org/2000/svg">
    <path d="M45 20.5C25 19 2.26498e-05 31.4999 0 56.0197V76.0196H324V3.99996C324 -6.50006 316 57.5 273 29C247.278 11.9518 202.5 53.5001 182.5 31.5C161.378 8.26534 154 -22.5 111.5 26.5C85.142 56.8892 101.79 24.7593 45 20.5Z" fill="#E9F1F7"/>
    <path d="M62 51.9999C41.6 73.1999 12 74.6665 0 72.9999V92.9999H324V30.9999C324 41.4999 313 58.9999 285.5 44.9999C258 30.9999 236.5 9.99997 211.5 29C186.5 48 169 83.9999 134.5 44.9999C100 5.99989 87.5 25.4999 62 51.9999Z" fill="#BFDAEF"/>
</svg>
