<svg width="12" height="6" viewBox="0 0 12 6" fill="none" xmlns="http://www.w3.org/2000/svg">
    <path d="M0.234846 0.205987C0.160403 0.270848 0.101341 0.347901 0.061042 0.432731C0.0207434 0.517561 6.4293e-08 0.608502 6.31977e-08 0.700346C6.21025e-08 0.79219 0.0207434 0.883131 0.061042 0.967961C0.101341 1.05279 0.160403 1.12984 0.234846 1.1947L5.54907 5.83664C5.60823 5.88843 5.67851 5.92951 5.75587 5.95754C5.83323 5.98557 5.91616 6 5.99992 6C6.08367 6 6.1666 5.98557 6.24396 5.95754C6.32132 5.92951 6.3916 5.88843 6.45076 5.83664L11.765 1.1947C12.0783 0.920992 12.0783 0.4797 11.765 0.205988C11.4516 -0.067725 10.9464 -0.0677251 10.6331 0.205988L5.99672 4.25023L1.36036 0.200402C1.0534 -0.0677242 0.541804 -0.0677252 0.234846 0.205987Z" fill="#737373"/>
</svg>
