<svg width="19" height="19" viewBox="0 0 19 19" fill="none" xmlns="http://www.w3.org/2000/svg">
    <path d="M18.5904 8.83613L15.539 7.31058L18.5904 5.78489C19.1362 5.51207 19.1368 4.73045 18.5904 4.45721L9.83198 0.078278C9.62293 -0.0260927 9.37707 -0.0260927 9.16802 0.078278L0.409574 4.45721C-0.136235 4.73016 -0.136814 5.51178 0.409574 5.78489L3.46103 7.31058L0.409574 8.83613C-0.136235 9.10909 -0.136814 9.89057 0.409574 10.1638L3.46103 11.6895L0.409574 13.2151C-0.136235 13.488 -0.136814 14.2695 0.409574 14.5427L9.16802 18.9217C9.37663 19.0259 9.6225 19.0263 9.83198 18.9217L18.5904 14.5427C19.1362 14.2698 19.1368 13.4883 18.5904 13.2151L15.539 11.6895L18.5904 10.1638C19.1362 9.891 19.1368 9.10938 18.5904 8.83613ZM9.5 1.57194L16.5987 5.12112L9.5 8.67015L2.4013 5.12112L9.5 1.57194ZM16.5987 13.879L9.5 17.428L2.4013 13.879L5.12078 12.5193L9.16802 14.5427C9.37678 14.647 9.6225 14.6474 9.83198 14.5427L13.8792 12.5193L16.5987 13.879ZM9.5 13.0491L2.4013 9.50005L5.12078 8.14033L9.16802 10.1638C9.37678 10.268 9.6225 10.2685 9.83198 10.1638L13.8792 8.14033L16.5987 9.50005L9.5 13.0491Z" fill="#004F8C"/>
</svg>
