<svg width="22" height="22" viewBox="0 0 22 22" fill="none" xmlns="http://www.w3.org/2000/svg">
    <path d="M8.81647 6.1737H12.9096C13.2656 6.1737 13.5542 5.88513 13.5542 5.52917C13.5542 5.17322 13.2656 4.88464 12.9096 4.88464H8.81647C8.46051 4.88464 8.17194 5.17322 8.17194 5.52917C8.17194 5.88513 8.46047 6.1737 8.81647 6.1737Z" fill="#004F8C"/>
    <path d="M15.7278 0H0.644531C0.288578 0 0 0.288578 0 0.644531V21.3554C0 21.7114 0.288578 22 0.644531 22H15.7278C16.0838 22 16.3724 21.7114 16.3724 21.3554V0.644531C16.3724 0.288578 16.0838 0 15.7278 0ZM15.0833 20.7109H1.28906V1.28906H15.0833V20.7109Z" fill="#004F8C"/>
    <path d="M22 15.6192V2.18758C22 0.981362 21.0186 0 19.8124 0C18.6061 0 17.6248 0.981362 17.6248 2.18758V15.6192C17.6248 15.9554 17.8824 16.2313 18.211 16.2607L17.6632 17.7741C17.6057 17.9332 17.6129 18.1086 17.6835 18.2623L19.2266 21.6243C19.3317 21.8532 19.5605 21.9999 19.8124 21.9999C20.0643 21.9999 20.2931 21.8532 20.3982 21.6243L21.9412 18.2623C22.0118 18.1085 22.0191 17.9332 21.9615 17.7741L21.4138 16.2607C21.7423 16.2313 22 15.9555 22 15.6192ZM18.9138 14.9747V5.36705H20.7109V14.9746H18.9138V14.9747ZM19.8124 1.28906C20.3078 1.28906 20.7109 1.69215 20.7109 2.18758V4.07799H18.9138V2.18758C18.9138 1.69215 19.3169 1.28906 19.8124 1.28906ZM19.8124 19.8103L18.9652 17.9646L19.5808 16.2637H20.0439L20.6596 17.9646L19.8124 19.8103Z" fill="#004F8C"/>
    <path d="M3.89734 6.75455C4.01821 6.87542 4.18214 6.94336 4.35306 6.94336C4.52399 6.94336 4.68796 6.87542 4.80879 6.75459L6.76657 4.79681C7.01828 4.5451 7.01828 4.13703 6.76657 3.88532C6.51491 3.63361 6.10679 3.63361 5.85508 3.88532L4.35306 5.38733L3.88617 4.92035C3.63454 4.66864 3.22643 4.66864 2.97467 4.92035C2.72296 5.17206 2.72296 5.58013 2.97467 5.83184L3.89734 6.75455Z" fill="#004F8C"/>
    <path d="M8.81647 10.0841H12.9096C13.2656 10.0841 13.5542 9.7955 13.5542 9.43954C13.5542 9.08359 13.2656 8.79501 12.9096 8.79501H8.81647C8.46051 8.79501 8.17194 9.08359 8.17194 9.43954C8.17194 9.7955 8.46047 10.0841 8.81647 10.0841Z" fill="#004F8C"/>
    <path d="M3.89734 10.6649C4.01821 10.7857 4.18214 10.8537 4.35306 10.8537C4.52399 10.8537 4.68796 10.7857 4.80879 10.6649L6.76657 8.70714C7.01828 8.45543 7.01828 8.04735 6.76657 7.79564C6.51491 7.54393 6.10679 7.54393 5.85508 7.79564L4.35306 9.29765L3.88617 8.83076C3.63454 8.57905 3.22643 8.57905 2.97467 8.83076C2.72296 9.08247 2.72296 9.49054 2.97467 9.74225L3.89734 10.6649Z" fill="#004F8C"/>
    <path d="M8.81647 13.9944H12.9096C13.2656 13.9944 13.5542 13.7058 13.5542 13.3499C13.5542 12.9939 13.2656 12.7053 12.9096 12.7053H8.81647C8.46051 12.7053 8.17194 12.9939 8.17194 13.3499C8.17194 13.7058 8.46047 13.9944 8.81647 13.9944Z" fill="#004F8C"/>
    <path d="M8.81647 18.0545H12.9096C13.2656 18.0545 13.5542 17.7659 13.5542 17.41C13.5542 17.054 13.2656 16.7654 12.9096 16.7654H8.81647C8.46051 16.7654 8.17194 17.054 8.17194 17.41C8.17194 17.7659 8.46047 18.0545 8.81647 18.0545Z" fill="#004F8C"/>
    <path d="M3.89729 14.5752C4.01816 14.6961 4.18209 14.7641 4.35302 14.7641C4.52395 14.7641 4.68792 14.6961 4.80875 14.5753L6.76653 12.6175C7.01824 12.3658 7.01824 11.9578 6.76653 11.7061C6.51486 11.4543 6.10674 11.4544 5.85503 11.7061L4.35302 13.2081L3.88612 12.7411C3.6345 12.4894 3.22638 12.4894 2.97463 12.7411C2.72287 12.9928 2.72292 13.4009 2.97463 13.6526L3.89729 14.5752Z" fill="#004F8C"/>
</svg>
