<svg width="19" height="24" viewBox="0 0 19 24" fill="none" xmlns="http://www.w3.org/2000/svg">
<path d="M4.62505 5.35525C4.08758 5.35525 3.65137 4.91904 3.65137 4.38157V0.973682C3.65137 0.43621 4.08758 0 4.62505 0C5.16252 0 5.59873 0.43621 5.59873 0.973682V4.38157C5.59873 4.91904 5.16252 5.35525 4.62505 5.35525Z" fill="#C6C6C6"/>
<path d="M9.25005 5.35525C8.71258 5.35525 8.27637 4.91904 8.27637 4.38157V0.973682C8.27637 0.43621 8.71258 0 9.25005 0C9.78752 0 10.2237 0.43621 10.2237 0.973682V4.38157C10.2237 4.91904 9.78752 5.35525 9.25005 5.35525Z" fill="#C6C6C6"/>
<path d="M13.875 5.35525C13.3376 5.35525 12.9014 4.91904 12.9014 4.38157V0.973682C12.9014 0.43621 13.3376 0 13.875 0C14.4125 0 14.8487 0.43621 14.8487 0.973682V4.38157C14.8487 4.91904 14.4125 5.35525 13.875 5.35525Z" fill="#C6C6C6"/>
<path d="M15.8223 2.19067H2.67763C1.20055 2.19067 0 3.39122 0 4.8683V20.6906C0 22.1677 1.20055 23.3683 2.67763 23.3683H15.8223C17.2994 23.3683 18.5 22.1677 18.5 20.6906V4.8683C18.5 3.39122 17.2994 2.19067 15.8223 2.19067ZM4.86841 7.78935H9.73682C10.2743 7.78935 10.7105 8.22556 10.7105 8.76303C10.7105 9.3005 10.2743 9.73671 9.73682 9.73671H4.86841C4.33094 9.73671 3.89473 9.3005 3.89473 8.76303C3.89473 8.22556 4.33094 7.78935 4.86841 7.78935ZM14.6052 17.5262H4.86841C4.33094 17.5262 3.89473 17.09 3.89473 16.5525C3.89473 16.015 4.33094 15.5788 4.86841 15.5788H14.6052C15.1427 15.5788 15.5789 16.015 15.5789 16.5525C15.5789 17.09 15.1427 17.5262 14.6052 17.5262ZM14.6052 13.6314H4.86841C4.33094 13.6314 3.89473 13.1952 3.89473 12.6578C3.89473 12.1203 4.33094 11.6841 4.86841 11.6841H14.6052C15.1427 11.6841 15.5789 12.1203 15.5789 12.6578C15.5789 13.1952 15.1427 13.6314 14.6052 13.6314Z" fill="#C6C6C6"/>
</svg>
