<svg width="19" height="19" viewBox="0 0 19 19" fill="none" xmlns="http://www.w3.org/2000/svg">
    <path d="M18.4434 1.37132H16.0052C16.014 1.10126 16.0189 0.829604 16.0189 0.556645C16.0189 0.249186 15.7696 0 15.4623 0H3.53771C3.2304 0 2.98107 0.249186 2.98107 0.556645C2.98107 0.829604 2.986 1.10126 2.99484 1.37132H0.556641C0.249184 1.37132 0 1.6205 0 1.92796C0 4.42214 0.651878 6.77527 1.83546 8.55407C3.00542 10.3126 4.56387 11.3212 6.24742 11.4193C6.6291 11.8346 7.03252 12.1733 7.45275 12.4316V14.9056H6.51893C5.38999 14.9056 4.47168 15.8241 4.47168 16.9529V17.8867H4.43211C4.12465 17.8867 3.87547 18.136 3.87547 18.4434C3.87547 18.7508 4.12465 19 4.43211 19H14.5679C14.8754 19 15.1245 18.7508 15.1245 18.4434C15.1245 18.136 14.8754 17.8867 14.5679 17.8867H14.5283V16.9529C14.5283 15.8241 13.61 14.9056 12.4811 14.9056H11.5472V12.4316C11.9675 12.1734 12.371 11.8346 12.7527 11.4193C14.4361 11.3212 15.9946 10.3126 17.1647 8.55407C18.3483 6.77527 19 4.42214 19 1.92796C19 1.6205 18.7508 1.37132 18.4434 1.37132ZM2.76233 7.93741C1.78603 6.47027 1.21243 4.5513 1.12502 2.48461H3.05703C3.2578 5.02517 3.85416 7.37352 4.78624 9.23755C4.93468 9.53443 5.08993 9.81493 5.25098 10.079C4.32513 9.7294 3.46828 8.99851 2.76233 7.93741ZM13.415 16.9529V17.8869H5.58496V16.9529C5.58496 16.438 6.00389 16.0189 6.51893 16.0189H12.4811C12.9961 16.0189 13.415 16.438 13.415 16.9529ZM10.434 14.9056H8.56603V12.9153C8.87204 12.9959 9.18385 13.0378 9.5 13.0378C9.81615 13.0378 10.128 12.9959 10.434 12.9153V14.9056ZM10.7787 11.591C10.7536 11.6013 10.7295 11.6137 10.7065 11.6275C10.3131 11.8232 9.90878 11.9245 9.5 11.9245C9.09136 11.9245 8.68722 11.8232 8.29395 11.6278C8.27061 11.6137 8.2464 11.6013 8.22103 11.5907C7.78456 11.3599 7.3623 11.0114 6.96294 10.5535C6.94192 10.5235 6.91829 10.4958 6.89205 10.4706C6.49559 9.99989 6.12261 9.42092 5.78196 8.73961C4.75899 6.6938 4.16814 4.00378 4.10088 1.11329H14.8991C14.8317 4.00378 14.2409 6.69394 13.218 8.73961C12.8774 9.42092 12.5044 9.99989 12.1081 10.4706C12.0817 10.4958 12.0578 10.5236 12.0369 10.5536C11.6376 11.0117 11.2151 11.36 10.7787 11.591ZM16.2377 7.93741C15.5317 8.99851 14.6749 9.7294 13.749 10.079C13.9101 9.81493 14.0653 9.53443 14.2138 9.23755C15.1458 7.37352 15.7421 5.02517 15.943 2.48461H17.875C17.7876 4.5513 17.214 6.47027 16.2377 7.93741Z" fill="#004F8C"/>
</svg>
