<svg width="23" height="23" viewBox="0 0 23 23" fill="none" xmlns="http://www.w3.org/2000/svg">
<path d="M22.1047 7.04377C21.5276 5.66922 20.688 4.41986 19.6327 3.36531C18.5805 2.30892 17.3307 1.46903 15.9542 0.893326C14.544 0.300696 13.0289 -0.00308639 11.4988 2.364e-05H11.4473C9.89105 0.00772452 8.38621 0.31576 6.96882 0.921563C5.6041 1.50317 4.36601 2.34455 3.32375 3.39868C2.27867 4.45086 1.44867 5.69586 0.879984 7.0643C0.28966 8.48733 -0.00945947 10.0138 0.000227994 11.5539C0.00794515 13.3354 0.434961 15.104 1.2324 16.6853V20.5871C1.2324 21.2391 1.76231 21.7679 2.41313 21.7679H6.31801C7.90999 22.5695 9.66676 22.9913 11.4499 23H11.5039C13.0422 23 14.5316 22.7022 15.9362 22.1195C17.3057 21.5507 18.5509 20.7206 19.6018 19.6758C20.6616 18.6259 21.4951 17.3989 22.079 16.0307C22.6835 14.6137 22.9922 13.1069 22.9999 11.5514C23.0051 9.98807 22.7015 8.471 22.1047 7.04377ZM6.36431 12.7322C5.6852 12.7322 5.13214 12.1803 5.13214 11.5C5.13214 10.8198 5.6852 10.2679 6.36431 10.2679C7.04342 10.2679 7.59648 10.8198 7.59648 11.5C7.59648 12.1803 7.04599 12.7322 6.36431 12.7322ZM11.4988 12.7322C10.8197 12.7322 10.2666 12.1803 10.2666 11.5C10.2666 10.8198 10.8197 10.2679 11.4988 10.2679C12.1779 10.2679 12.731 10.8198 12.731 11.5C12.731 12.1803 12.1779 12.7322 11.4988 12.7322ZM16.6333 12.7322C15.9542 12.7322 15.4011 12.1803 15.4011 11.5C15.4011 10.8198 15.9542 10.2679 16.6333 10.2679C17.3124 10.2679 17.8655 10.8198 17.8655 11.5C17.8655 12.1803 17.3124 12.7322 16.6333 12.7322Z" fill="#C6C6C6"/>
</svg>
