<svg width="18" height="22" viewBox="0 0 18 22" fill="none" xmlns="http://www.w3.org/2000/svg">
    <path d="M17.9895 21.0812L16.6661 6.17252C16.63 5.76537 16.2927 5.45352 15.8887 5.45352H13.1596V4.2084C13.1596 1.88789 11.2935 0 8.99969 0C6.706 0 4.84008 1.88789 4.84008 4.2084V5.45352H2.10915C1.70512 5.45352 1.3678 5.76537 1.33169 6.17252L0.00312121 21.1398C-0.0164456 21.3607 0.0566176 21.5796 0.204513 21.7432C0.352409 21.9068 0.561504 22 0.780589 22H17.2173C17.218 22 17.2188 22 17.2194 22C17.6506 22 18 21.6464 18 21.2104C17.9999 21.1664 17.9964 21.1232 17.9895 21.0812ZM6.40126 4.2084C6.40126 2.75871 7.56694 1.57929 8.99979 1.57929C10.4327 1.57929 11.5985 2.75871 11.5985 4.2084V5.45352H6.40126V4.2084ZM1.63445 20.4208L2.82282 7.03281H4.84008V8.44491C4.84008 8.88101 5.18947 9.23456 5.62067 9.23456C6.05187 9.23456 6.40126 8.88101 6.40126 8.44491V7.03281H11.5985V8.44491C11.5985 8.88101 11.9479 9.23456 12.3791 9.23456C12.8103 9.23456 13.1597 8.88101 13.1597 8.44491V7.03281H15.1751L16.3635 20.4208H1.63445Z" fill="#004F8C"/>
</svg>
