<svg width="23" height="23" viewBox="0 0 23 23" fill="none" xmlns="http://www.w3.org/2000/svg">
<path d="M2.3 20.7H4.6V9.2C4.6 8.895 4.72116 8.6025 4.93683 8.38683C5.15249 8.17116 5.445 8.05 5.75 8.05H19.55V5.75C19.55 5.445 19.4288 5.15249 19.2132 4.93683C18.9975 4.72116 18.705 4.6 18.4 4.6H14.8913C14.6016 2.0194 12.4315 0 9.775 0C7.1185 0 4.94845 2.0194 4.65865 4.6H1.15C0.845001 4.6 0.552494 4.72116 0.336827 4.93683C0.12116 5.15249 0 5.445 0 5.75V18.4C0 19.01 0.242321 19.595 0.673654 20.0263C1.10499 20.4577 1.69 20.7 2.3 20.7ZM9.775 2.3C11.163 2.3 12.3257 3.289 12.5925 4.6H6.9575C7.2243 3.289 8.38695 2.3 9.775 2.3Z" fill="#C6C6C6"/>
<path d="M21.8499 10.3501H8.0499C7.7449 10.3501 7.4524 10.4713 7.23673 10.6869C7.02106 10.9026 6.8999 11.1951 6.8999 11.5001V20.7001C6.8999 21.3101 7.14222 21.8951 7.57356 22.3264C8.00489 22.7578 8.5899 23.0001 9.1999 23.0001H20.6999C21.3099 23.0001 21.8949 22.7578 22.3262 22.3264C22.7576 21.8951 22.9999 21.3101 22.9999 20.7001V11.5001C22.9999 11.1951 22.8787 10.9026 22.6631 10.6869C22.4474 10.4713 22.1549 10.3501 21.8499 10.3501ZM14.9499 18.4001C11.7794 18.4001 9.1999 15.8206 9.1999 12.6501H11.4999C11.4999 14.5522 13.0478 16.1001 14.9499 16.1001C16.852 16.1001 18.3999 14.5522 18.3999 12.6501H20.6999C20.6999 15.8206 18.1205 18.4001 14.9499 18.4001Z" fill="#C6C6C6"/>
</svg>
