<svg width="23" height="23" viewBox="0 0 23 23" fill="none" xmlns="http://www.w3.org/2000/svg">
<path d="M18.4 2.3V0H4.6V2.3H0V5.06C0 8.05 1.955 10.465 4.715 11.27C5.06 14.26 7.36 16.675 10.35 17.135V20.7H8.28C8.165 20.7 7.935 20.815 7.82 20.815L6.67 21.965C6.325 22.425 6.67 23 7.13 23H15.87C16.33 23 16.675 22.425 16.33 21.965L15.18 20.815C15.065 20.7 14.95 20.7 14.72 20.7H12.65V17.135C15.64 16.56 17.94 14.26 18.285 11.27C21.045 10.465 23 7.935 23 5.06V2.3H18.4ZM4.6 8.74C1.955 7.475 2.3 4.6 2.3 4.6H4.6V8.74ZM18.4 8.74V4.6H20.7C20.7 4.6 21.045 7.36 18.4 8.74Z" fill="#C6C6C6"/>
</svg>
